<svg xmlns="http://www.w3.org/2000/svg" viewBox="0 0 375.36 35.97"><defs><style>.cls-1{fill:#fff;}.cls-2{fill:none;}</style></defs><g id="Layer_2" data-name="Layer 2"><g id="DataEcosystem_--_white_version" data-name="DataEcosystem -- white version"><g id="desktop_long"><path class="cls-1" d="M16.13,0h5V24.56H16.63L5,7.66v16.9H0V0H4.91L16.13,16.25Z" transform="translate(12.26 5.21)"/><path class="cls-1" d="M26.59,0h4.95V24.56H26.59Z" transform="translate(12.26 5.21)"/><path class="cls-1" d="M35.22,24.56,44,0h5.24l8.78,24.56H53.11l-2-5.69H42.26l-2,5.69Zm8.15-10h6.54L46.67,4.79Z" transform="translate(12.26 5.21)"/><path class="cls-1" d="M61.74,0h4.95V24.56H61.74Z" transform="translate(12.26 5.21)"/><path class="cls-1" d="M72.2,0h5.4l1.94,0a16.32,16.32,0,0,1,7.29,1.6A9.25,9.25,0,0,1,91,5.81a14.23,14.23,0,0,1,1.32,6.35,14.54,14.54,0,0,1-1.39,6.6,9.71,9.71,0,0,1-4.26,4.29,15.46,15.46,0,0,1-7.27,1.51H72.2Zm5,4V20.55h2.27a8.92,8.92,0,0,0,3.84-.81,6.23,6.23,0,0,0,2.76-2.67,10.13,10.13,0,0,0,1-4.94,10.29,10.29,0,0,0-.92-4.67,5.78,5.78,0,0,0-2.62-2.62,9.14,9.14,0,0,0-4-.83Z" transform="translate(12.26 5.21)"/><path class="cls-1" d="M105.41,0h5.4l2,0a16.32,16.32,0,0,1,7.29,1.6,9.34,9.34,0,0,1,4.14,4.18,14.23,14.23,0,0,1,1.32,6.35,14.54,14.54,0,0,1-1.4,6.6,9.71,9.71,0,0,1-4.26,4.29,15.42,15.42,0,0,1-7.26,1.51h-7.18Zm5,4V20.55h2.28a8.91,8.91,0,0,0,3.83-.81,6.3,6.3,0,0,0,2.77-2.67,10.13,10.13,0,0,0,1-4.94,10.16,10.16,0,0,0-.92-4.67,5.76,5.76,0,0,0-2.61-2.62,9.17,9.17,0,0,0-4-.83Z" transform="translate(12.26 5.21)"/><path class="cls-1" d="M134.36,24.9a7,7,0,0,1-3-.63,5,5,0,0,1-2.13-1.83,5.18,5.18,0,0,1-.78-2.91,5,5,0,0,1,2.16-4.39q2.16-1.5,6.82-1.55l2.19,0V12.5a2.43,2.43,0,0,0-.71-1.86,3.09,3.09,0,0,0-2.18-.64,5,5,0,0,0-2.07.51,2.64,2.64,0,0,0-1.33,1.72h-4.13a5.32,5.32,0,0,1,1.1-3.13A5.89,5.89,0,0,1,133,7.26a11.91,11.91,0,0,1,3.92-.6,11.59,11.59,0,0,1,4.34.67,4.74,4.74,0,0,1,2.36,1.92,5.73,5.73,0,0,1,.73,3V24.56h-4.15l-.41-3a5.58,5.58,0,0,1-2.25,2.63A6.68,6.68,0,0,1,134.36,24.9ZM136,21.64a3.56,3.56,0,0,0,1.32-.25,4,4,0,0,0,1.14-.66,3.54,3.54,0,0,0,.8-.94,2.1,2.1,0,0,0,.31-1.09V16.1l-1.79,0a10.57,10.57,0,0,0-2.31.3,3.83,3.83,0,0,0-1.72.91,2.24,2.24,0,0,0-.66,1.7A2.35,2.35,0,0,0,134,21,3.16,3.16,0,0,0,136,21.64Z" transform="translate(12.26 5.21)"/><path class="cls-1" d="M158.69,10.45h-3.91l0,9.35a2.14,2.14,0,0,0,.17,1,.74.74,0,0,0,.51.41,3.64,3.64,0,0,0,.89.09h2.36v3.06a5.2,5.2,0,0,1-1.06.29,11.49,11.49,0,0,1-2,.14,8.51,8.51,0,0,1-3.57-.6,3.41,3.41,0,0,1-1.76-1.66,5.87,5.87,0,0,1-.5-2.48V10.45H147V7h3l1.24-5.3h3.54V7h3.91Z" transform="translate(12.26 5.21)"/><path class="cls-1" d="M167.39,24.9a7,7,0,0,1-3-.63,5,5,0,0,1-2.13-1.83,5.18,5.18,0,0,1-.78-2.91,5,5,0,0,1,2.16-4.39q2.16-1.5,6.82-1.55l2.19,0V12.5a2.43,2.43,0,0,0-.71-1.86,3.09,3.09,0,0,0-2.18-.64,5,5,0,0,0-2.07.51,2.64,2.64,0,0,0-1.33,1.72h-4.13a5.32,5.32,0,0,1,1.1-3.13A5.89,5.89,0,0,1,166,7.26a11.91,11.91,0,0,1,3.92-.6,11.59,11.59,0,0,1,4.34.67,4.74,4.74,0,0,1,2.36,1.92,5.73,5.73,0,0,1,.73,3V24.56h-4.15l-.41-3a5.58,5.58,0,0,1-2.25,2.63A6.68,6.68,0,0,1,167.39,24.9Zm1.67-3.26a3.56,3.56,0,0,0,1.32-.25,4,4,0,0,0,1.14-.66,3.54,3.54,0,0,0,.8-.94,2.1,2.1,0,0,0,.31-1.09V16.1l-1.79,0a10.57,10.57,0,0,0-2.31.3,3.83,3.83,0,0,0-1.72.91,2.24,2.24,0,0,0-.66,1.7A2.35,2.35,0,0,0,167,21,3.16,3.16,0,0,0,169.06,21.64Z" transform="translate(12.26 5.21)"/><path class="cls-1" d="M191.16,24.56V0H208l0,4.18H196.14v6h10.32v4.09H196.1v6.1l12.11,0v4.21Z" transform="translate(12.26 5.21)"/><path class="cls-1" d="M219.53,6.66a7.71,7.71,0,0,1,3.82.9A6.79,6.79,0,0,1,225.88,10a7.47,7.47,0,0,1,1.06,3.41h-4.13a4.49,4.49,0,0,0-.49-1.38,3.12,3.12,0,0,0-1.06-1.14,3,3,0,0,0-1.7-.45,3.44,3.44,0,0,0-2.81,1.33,6.36,6.36,0,0,0-1.08,4.05,7,7,0,0,0,1.05,4.07,3.41,3.41,0,0,0,2.95,1.5,2.75,2.75,0,0,0,1.67-.49,3.57,3.57,0,0,0,1-1.18,4.58,4.58,0,0,0,.47-1.28h4a6.87,6.87,0,0,1-1,3.28A6.72,6.72,0,0,1,223.3,24a7.94,7.94,0,0,1-3.77.86,8.67,8.67,0,0,1-4.37-1.09,7.7,7.7,0,0,1-3-3.12,10,10,0,0,1-1.09-4.84,10.43,10.43,0,0,1,1-4.79,7.89,7.89,0,0,1,3-3.24A8.44,8.44,0,0,1,219.53,6.66Z" transform="translate(12.26 5.21)"/><path class="cls-1" d="M237.91,24.9a8.78,8.78,0,0,1-4.5-1.11,7.43,7.43,0,0,1-3-3.12,10.26,10.26,0,0,1-1-4.79,10.56,10.56,0,0,1,1-4.84,7.78,7.78,0,0,1,3-3.23,9.49,9.49,0,0,1,9,0,7.54,7.54,0,0,1,2.94,3.2,10.81,10.81,0,0,1,1,4.89,10.27,10.27,0,0,1-1,4.68,7.62,7.62,0,0,1-2.9,3.18A8.66,8.66,0,0,1,237.91,24.9Zm0-3.69a2.91,2.91,0,0,0,2.11-.76,4.54,4.54,0,0,0,1.17-2,9.85,9.85,0,0,0,.36-2.73,10.13,10.13,0,0,0-.33-2.63,4.22,4.22,0,0,0-1.13-2,3.48,3.48,0,0,0-4.29,0,4.15,4.15,0,0,0-1.18,2,9.38,9.38,0,0,0-.38,2.73,10,10,0,0,0,.34,2.64,4.55,4.55,0,0,0,1.14,2.06A2.92,2.92,0,0,0,237.92,21.21Z" transform="translate(12.26 5.21)"/><path class="cls-1" d="M256.61,24.9a10.53,10.53,0,0,1-3.54-.6,7,7,0,0,1-2.87-1.91A6.39,6.39,0,0,1,248.7,19H253a2.85,2.85,0,0,0,.81,1.48,3.44,3.44,0,0,0,1.33.77,4.68,4.68,0,0,0,1.43.23,5.11,5.11,0,0,0,2.31-.45,1.47,1.47,0,0,0,.87-1.38,1.38,1.38,0,0,0-.52-1.14,3.87,3.87,0,0,0-1.71-.65l-3.09-.64a8.56,8.56,0,0,1-3.74-1.67,4.23,4.23,0,0,1-1.44-3.36,5,5,0,0,1,.84-2.83,5.65,5.65,0,0,1,2.49-2,9.92,9.92,0,0,1,4-.73,8.62,8.62,0,0,1,5.2,1.42,4.84,4.84,0,0,1,2,4h-4.15a2.33,2.33,0,0,0-1-1.57,3.63,3.63,0,0,0-2.07-.55,4.3,4.3,0,0,0-2.12.46,1.48,1.48,0,0,0-.84,1.39,1.22,1.22,0,0,0,.68,1.09,7.08,7.08,0,0,0,2.11.69l2.86.65a7.32,7.32,0,0,1,2.4,1,5.54,5.54,0,0,1,1.44,1.35,4.73,4.73,0,0,1,.71,1.47A5.32,5.32,0,0,1,264,19.4a4.81,4.81,0,0,1-.93,3,5.81,5.81,0,0,1-2.61,1.87A10.6,10.6,0,0,1,256.61,24.9Z" transform="translate(12.26 5.21)"/><path class="cls-1" d="M270.09,30.16a8.63,8.63,0,0,1-3.28-.59V26.41l1.73.07a6.35,6.35,0,0,0,1.84-.11,2.92,2.92,0,0,0,1.06-.47,1.78,1.78,0,0,0,.52-.6c.1-.21.17-.38.22-.5l.32-1L265.67,7h4.91l4.22,11.44L279.06,7h4.85l-7.12,17.66a12.8,12.8,0,0,1-1.94,3.43,5.49,5.49,0,0,1-2.2,1.63A7.14,7.14,0,0,1,270.09,30.16Z" transform="translate(12.26 5.21)"/><path class="cls-1" d="M292.9,24.9a10.51,10.51,0,0,1-3.53-.6,6.94,6.94,0,0,1-2.88-1.91A6.31,6.31,0,0,1,285,19h4.3a2.77,2.77,0,0,0,.8,1.48,3.48,3.48,0,0,0,1.34.77,4.64,4.64,0,0,0,1.43.23,5,5,0,0,0,2.3-.45,1.47,1.47,0,0,0,.88-1.38,1.41,1.41,0,0,0-.52-1.14,4,4,0,0,0-1.71-.65l-3.09-.64A8.51,8.51,0,0,1,287,15.57a4.2,4.2,0,0,1-1.45-3.36,5,5,0,0,1,.84-2.83,5.65,5.65,0,0,1,2.49-2,9.94,9.94,0,0,1,4.05-.73,8.6,8.6,0,0,1,5.19,1.42,4.79,4.79,0,0,1,2,4h-4.15a2.29,2.29,0,0,0-1-1.57,3.62,3.62,0,0,0-2.06-.55,4.36,4.36,0,0,0-2.13.46,1.49,1.49,0,0,0-.83,1.39,1.22,1.22,0,0,0,.68,1.09,7,7,0,0,0,2.11.69l2.85.65a7.38,7.38,0,0,1,2.41,1,5.54,5.54,0,0,1,1.44,1.35,4.69,4.69,0,0,1,.7,1.47,5.37,5.37,0,0,1,.2,1.34,4.82,4.82,0,0,1-.94,3,5.78,5.78,0,0,1-2.6,1.87A10.65,10.65,0,0,1,292.9,24.9Z" transform="translate(12.26 5.21)"/><path class="cls-1" d="M314.27,10.45h-3.91l0,9.35a2.31,2.31,0,0,0,.16,1,.77.77,0,0,0,.52.41,3.58,3.58,0,0,0,.89.09h2.36v3.06a5.2,5.2,0,0,1-1.06.29,11.57,11.57,0,0,1-2,.14,8.51,8.51,0,0,1-3.57-.6,3.37,3.37,0,0,1-1.76-1.66,5.87,5.87,0,0,1-.5-2.48V10.45h-2.85V7h3l1.24-5.3h3.54V7h3.91Z" transform="translate(12.26 5.21)"/><path class="cls-1" d="M321.43,16.92a5.61,5.61,0,0,0,.42,2.33,3.46,3.46,0,0,0,1.28,1.53,3.71,3.71,0,0,0,2,.53,4.46,4.46,0,0,0,2.23-.54A2.92,2.92,0,0,0,328.74,19h4.47a6.07,6.07,0,0,1-1.49,3.19,7.83,7.83,0,0,1-2.9,2,9.11,9.11,0,0,1-3.53.7,9.33,9.33,0,0,1-4.59-1.1,7.72,7.72,0,0,1-3.08-3.1A9.58,9.58,0,0,1,316.51,16a11,11,0,0,1,1-4.75,8,8,0,0,1,2.91-3.34,9.39,9.39,0,0,1,9.11-.1,7.09,7.09,0,0,1,2.76,3.14,11,11,0,0,1,.92,4.64v1.35Zm0-3h7.17a4.77,4.77,0,0,0-.39-1.94A3.14,3.14,0,0,0,327,10.63a3.6,3.6,0,0,0-2-.51,3.45,3.45,0,0,0-2,.55,3.68,3.68,0,0,0-1.24,1.44A4.28,4.28,0,0,0,321.41,14Z" transform="translate(12.26 5.21)"/><path class="cls-1" d="M336.68,24.56V7h4.86V9.48a7,7,0,0,1,2.15-2,6.45,6.45,0,0,1,3.41-.83,5.69,5.69,0,0,1,1.83.32,6.5,6.5,0,0,1,1.76.94A4.82,4.82,0,0,1,352,9.48a6.91,6.91,0,0,1,2.23-2,6.11,6.11,0,0,1,3.09-.8,6.78,6.78,0,0,1,2,.32,5.57,5.57,0,0,1,1.86,1,5.38,5.38,0,0,1,1.37,2,7.77,7.77,0,0,1,.51,3V24.56h-5v-11a3,3,0,0,0-.42-1.69,2.38,2.38,0,0,0-1-.92,3.3,3.3,0,0,0-1.35-.28A3.89,3.89,0,0,0,354,11a2.88,2.88,0,0,0-1.15.84,2.31,2.31,0,0,0-.48,1.52V24.56h-4.94V13.15A2.16,2.16,0,0,0,347,11.8,2.76,2.76,0,0,0,345.9,11a3.17,3.17,0,0,0-1.3-.28,3.45,3.45,0,0,0-1.36.28,2.73,2.73,0,0,0-1.14.87,2.29,2.29,0,0,0-.46,1.47V24.56Z" transform="translate(12.26 5.21)"/><line class="cls-2" y2="35.97"/></g></g></g></svg>