<svg xmlns="http://www.w3.org/2000/svg" viewBox="0 0 313.5 30"><defs><style>.cls-1{fill:#fff;}.cls-2{fill:none;}</style></defs><g id="Layer_2" data-name="Layer 2"><g id="DataEcosystem_--_base_version" data-name="DataEcosystem -- base version"><g id="mobile_vertical"><path class="cls-1" d="M13.76,0H18V21H14.18L4.22,6.54V21H0V0H4.19l9.57,13.88Z" transform="translate(6.41 3.01)"/><path class="cls-1" d="M22.68,0H26.9V21H22.68Z" transform="translate(6.41 3.01)"/><path class="cls-1" d="M30,21,37.55,0H42l7.5,21H45.3l-1.71-4.86H36.05L34.29,21Zm7-8.56h5.58L39.8,4.09Z" transform="translate(6.41 3.01)"/><path class="cls-1" d="M52.66,0h4.22V21H52.66Z" transform="translate(6.41 3.01)"/><path class="cls-1" d="M61.58,0h4.6l1.66,0a13.94,13.94,0,0,1,6.22,1.36A7.94,7.94,0,0,1,77.6,5a12.31,12.31,0,0,1,1.12,5.42A12.44,12.44,0,0,1,77.53,16a8.21,8.21,0,0,1-3.63,3.67A13.23,13.23,0,0,1,67.7,21H61.58Zm4.26,3.42V17.54h2a7.63,7.63,0,0,0,3.27-.69,5.27,5.27,0,0,0,2.35-2.28,8.62,8.62,0,0,0,.89-4.22,8.64,8.64,0,0,0-.79-4,4.89,4.89,0,0,0-2.23-2.24,7.79,7.79,0,0,0-3.44-.71Z" transform="translate(6.41 3.01)"/><path class="cls-1" d="M88.61,0h4.6l1.66,0a14,14,0,0,1,6.22,1.36A7.91,7.91,0,0,1,104.62,5a12.17,12.17,0,0,1,1.13,5.42A12.44,12.44,0,0,1,104.56,16a8.31,8.31,0,0,1-3.63,3.67A13.23,13.23,0,0,1,94.73,21H88.61Zm4.26,3.42V17.54h1.94a7.6,7.6,0,0,0,3.27-.69,5.29,5.29,0,0,0,2.36-2.28,8.63,8.63,0,0,0,.88-4.22,8.78,8.78,0,0,0-.78-4,4.94,4.94,0,0,0-2.23-2.24,7.79,7.79,0,0,0-3.44-.71Z" transform="translate(6.41 3.01)"/><path class="cls-1" d="M113.3,21.26a6,6,0,0,1-2.58-.54,4.3,4.3,0,0,1-1.81-1.56,4.41,4.41,0,0,1-.67-2.49,4.26,4.26,0,0,1,1.84-3.74q1.85-1.29,5.82-1.33l1.87,0v-.9a2.09,2.09,0,0,0-.6-1.59,2.66,2.66,0,0,0-1.87-.54,4,4,0,0,0-1.76.44,2.21,2.21,0,0,0-1.14,1.46h-3.52a4.56,4.56,0,0,1,.94-2.68,5.06,5.06,0,0,1,2.33-1.56,10.14,10.14,0,0,1,3.34-.52,9.92,9.92,0,0,1,3.7.58,3.89,3.89,0,0,1,2,1.64,4.87,4.87,0,0,1,.63,2.53V21h-3.54l-.35-2.58A4.67,4.67,0,0,1,116,20.63,5.6,5.6,0,0,1,113.3,21.26Zm1.42-2.79a3.14,3.14,0,0,0,1.13-.21,3.72,3.72,0,0,0,1-.56,3.3,3.3,0,0,0,.69-.81,1.87,1.87,0,0,0,.26-.93V13.75l-1.53,0a8.23,8.23,0,0,0-2,.26,3.32,3.32,0,0,0-1.47.77,1.94,1.94,0,0,0-.56,1.45,2,2,0,0,0,.73,1.64A2.7,2.7,0,0,0,114.72,18.47Z" transform="translate(6.41 3.01)"/><path class="cls-1" d="M134.05,8.92h-3.34l0,8a1.92,1.92,0,0,0,.14.82.64.64,0,0,0,.44.34,2.68,2.68,0,0,0,.76.08h2v2.61a4.14,4.14,0,0,1-.9.25,9.55,9.55,0,0,1-1.72.12,7.3,7.3,0,0,1-3.05-.51,2.94,2.94,0,0,1-1.5-1.42,5,5,0,0,1-.42-2.12V8.92h-2.44V6h2.58l1.06-4.52h3V6h3.34Z" transform="translate(6.41 3.01)"/><path class="cls-1" d="M141.47,21.26a6,6,0,0,1-2.58-.54,4.3,4.3,0,0,1-1.81-1.56,4.49,4.49,0,0,1-.67-2.49,4.28,4.28,0,0,1,1.84-3.74q1.84-1.29,5.82-1.33l1.87,0v-.9a2.09,2.09,0,0,0-.6-1.59,2.63,2.63,0,0,0-1.87-.54,4.05,4.05,0,0,0-1.76.44,2.22,2.22,0,0,0-1.13,1.46h-3.53A4.56,4.56,0,0,1,138,7.76a5.06,5.06,0,0,1,2.33-1.56,10.18,10.18,0,0,1,3.34-.52,9.92,9.92,0,0,1,3.7.58,4,4,0,0,1,2,1.64,5,5,0,0,1,.62,2.53V21h-3.54l-.35-2.58a4.67,4.67,0,0,1-1.92,2.24A5.58,5.58,0,0,1,141.47,21.26Zm1.42-2.79a3.1,3.1,0,0,0,1.13-.21,3.57,3.57,0,0,0,1-.56,3.1,3.1,0,0,0,.69-.81,1.87,1.87,0,0,0,.26-.93V13.75l-1.52,0a8.09,8.09,0,0,0-2,.26,3.42,3.42,0,0,0-1.48.77,1.94,1.94,0,0,0-.55,1.45,2,2,0,0,0,.72,1.64A2.7,2.7,0,0,0,142.89,18.47Z" transform="translate(6.41 3.01)"/><path class="cls-1" d="M160.44,21V0h14.4l0,3.57H164.69V8.66h8.8v3.49h-8.83v5.21H175V21Z" transform="translate(6.41 3.01)"/><path class="cls-1" d="M184.64,5.68a6.6,6.6,0,0,1,3.26.77,5.83,5.83,0,0,1,2.16,2.08,6.54,6.54,0,0,1,.9,2.91h-3.52a3.89,3.89,0,0,0-.42-1.18,2.61,2.61,0,0,0-.9-1,2.55,2.55,0,0,0-1.45-.39,2.93,2.93,0,0,0-2.4,1.14,5.46,5.46,0,0,0-.92,3.46,5.93,5.93,0,0,0,.9,3.47,2.87,2.87,0,0,0,2.51,1.28,2.26,2.26,0,0,0,1.42-.42,3.05,3.05,0,0,0,.9-1,3.7,3.7,0,0,0,.4-1.1h3.44a5.91,5.91,0,0,1-.9,2.81,5.61,5.61,0,0,1-2.17,2,6.67,6.67,0,0,1-3.21.74,7.45,7.45,0,0,1-3.73-.93,6.59,6.59,0,0,1-2.57-2.66,8.67,8.67,0,0,1-.93-4.14,8.89,8.89,0,0,1,.89-4.09,6.76,6.76,0,0,1,2.53-2.76A7.13,7.13,0,0,1,184.64,5.68Z" transform="translate(6.41 3.01)"/><path class="cls-1" d="M200.31,21.26a7.5,7.5,0,0,1-3.83-1A6.29,6.29,0,0,1,194,17.65a8.75,8.75,0,0,1-.9-4.09,9,9,0,0,1,.9-4.14,6.64,6.64,0,0,1,2.52-2.75,8,8,0,0,1,7.69,0,6.45,6.45,0,0,1,2.51,2.73,9.23,9.23,0,0,1,.88,4.18,8.74,8.74,0,0,1-.86,4,6.46,6.46,0,0,1-2.48,2.72A7.35,7.35,0,0,1,200.31,21.26Zm0-3.15a2.53,2.53,0,0,0,1.8-.65,3.89,3.89,0,0,0,1-1.72,8.21,8.21,0,0,0,.31-2.33,8.54,8.54,0,0,0-.28-2.24,3.6,3.6,0,0,0-1-1.72,2.58,2.58,0,0,0-1.85-.65,2.62,2.62,0,0,0-1.81.62,3.5,3.5,0,0,0-1,1.66,7.81,7.81,0,0,0-.32,2.33,8.39,8.39,0,0,0,.29,2.26,3.78,3.78,0,0,0,1,1.76A2.54,2.54,0,0,0,200.33,18.11Z" transform="translate(6.41 3.01)"/><path class="cls-1" d="M216.26,21.26a9,9,0,0,1-3-.52,5.79,5.79,0,0,1-2.45-1.62,5.39,5.39,0,0,1-1.28-2.88h3.67a2.42,2.42,0,0,0,.69,1.26,2.85,2.85,0,0,0,1.14.66,4.14,4.14,0,0,0,1.21.2,4.26,4.26,0,0,0,2-.39,1.25,1.25,0,0,0,.75-1.18,1.17,1.17,0,0,0-.45-1,3.22,3.22,0,0,0-1.45-.55l-2.64-.55a7.19,7.19,0,0,1-3.19-1.43A3.58,3.58,0,0,1,210,10.43,4.27,4.27,0,0,1,210.7,8a4.82,4.82,0,0,1,2.13-1.69,8.41,8.41,0,0,1,3.45-.63,7.36,7.36,0,0,1,4.43,1.22,4.11,4.11,0,0,1,1.69,3.44h-3.54A2,2,0,0,0,218,9a3.07,3.07,0,0,0-1.77-.47,3.76,3.76,0,0,0-1.81.39,1.28,1.28,0,0,0-.71,1.19,1,1,0,0,0,.58.93,6.26,6.26,0,0,0,1.8.59l2.44.55a6.39,6.39,0,0,1,2.05.83,4.7,4.7,0,0,1,1.22,1.16,3.87,3.87,0,0,1,.6,1.25,4.15,4.15,0,0,1,.17,1.14,4.1,4.1,0,0,1-.8,2.54,5,5,0,0,1-2.22,1.61A9.18,9.18,0,0,1,216.26,21.26Z" transform="translate(6.41 3.01)"/><path class="cls-1" d="M227.76,25.75a7.42,7.42,0,0,1-2.8-.51V22.55l1.48.06a5.62,5.62,0,0,0,1.57-.1,2.34,2.34,0,0,0,.91-.4,1.58,1.58,0,0,0,.44-.51c.08-.18.15-.32.19-.43l.27-.83L224,6h4.19l3.6,9.78L235.42,6h4.13l-6.07,15.08A10.91,10.91,0,0,1,231.82,24a4.68,4.68,0,0,1-1.88,1.4A6.2,6.2,0,0,1,227.76,25.75Z" transform="translate(6.41 3.01)"/><path class="cls-1" d="M247.22,21.26a9,9,0,0,1-3-.52,5.89,5.89,0,0,1-2.46-1.62,5.46,5.46,0,0,1-1.27-2.88h3.67a2.35,2.35,0,0,0,.69,1.26,2.88,2.88,0,0,0,1.13.66,4.56,4.56,0,0,0,3.19-.19,1.24,1.24,0,0,0,.74-1.18,1.17,1.17,0,0,0-.44-1,3.22,3.22,0,0,0-1.46-.55l-2.63-.55a7.19,7.19,0,0,1-3.19-1.43,3.59,3.59,0,0,1-1.24-2.86A4.28,4.28,0,0,1,241.66,8a4.82,4.82,0,0,1,2.13-1.69,8.37,8.37,0,0,1,3.45-.63,7.36,7.36,0,0,1,4.43,1.22,4.11,4.11,0,0,1,1.69,3.44h-3.54A2,2,0,0,0,249,9a3,3,0,0,0-1.76-.47,3.73,3.73,0,0,0-1.81.39,1.28,1.28,0,0,0-.71,1.19,1,1,0,0,0,.58.93,6.26,6.26,0,0,0,1.8.59l2.43.55a6.46,6.46,0,0,1,2.06.83,4.7,4.7,0,0,1,1.22,1.16,3.87,3.87,0,0,1,.6,1.25,4.57,4.57,0,0,1,.17,1.14,4.1,4.1,0,0,1-.8,2.54,5,5,0,0,1-2.22,1.61A9.18,9.18,0,0,1,247.22,21.26Z" transform="translate(6.41 3.01)"/><path class="cls-1" d="M265.45,8.92h-3.34l0,8a1.92,1.92,0,0,0,.14.82.64.64,0,0,0,.43.34,2.8,2.8,0,0,0,.77.08h2v2.61a4.09,4.09,0,0,1-.91.25,9.42,9.42,0,0,1-1.71.12,7.35,7.35,0,0,1-3.06-.51,2.94,2.94,0,0,1-1.5-1.42,5,5,0,0,1-.42-2.12V8.92h-2.43V6H258l1.06-4.52h3V6h3.34Z" transform="translate(6.41 3.01)"/><path class="cls-1" d="M271.55,14.44a4.61,4.61,0,0,0,.37,2,2.86,2.86,0,0,0,1.09,1.3,3.21,3.21,0,0,0,1.73.46,3.81,3.81,0,0,0,1.91-.47,2.48,2.48,0,0,0,1.14-1.52h3.81a5.16,5.16,0,0,1-1.27,2.73,6.63,6.63,0,0,1-2.47,1.72,8.26,8.26,0,0,1-6.92-.34,6.58,6.58,0,0,1-2.64-2.64,8.34,8.34,0,0,1-.94-4,9.36,9.36,0,0,1,.86-4.05,6.81,6.81,0,0,1,2.48-2.85,7,7,0,0,1,3.93-1.06,7.15,7.15,0,0,1,3.85,1,6.08,6.08,0,0,1,2.35,2.68,9.53,9.53,0,0,1,.79,4v1.14Zm0-2.52h6.12a3.9,3.9,0,0,0-.34-1.65,2.66,2.66,0,0,0-1-1.19,3.08,3.08,0,0,0-1.69-.44,2.94,2.94,0,0,0-1.68.47,3.12,3.12,0,0,0-1.05,1.23A3.62,3.62,0,0,0,271.54,11.92Z" transform="translate(6.41 3.01)"/><path class="cls-1" d="M284.56,21V6h4.15V8.09a6,6,0,0,1,1.83-1.7,5.5,5.5,0,0,1,2.91-.71A4.85,4.85,0,0,1,295,6a5.44,5.44,0,0,1,1.5.8,4.18,4.18,0,0,1,1.14,1.33,6,6,0,0,1,1.91-1.72,5.11,5.11,0,0,1,2.63-.69,5.65,5.65,0,0,1,1.7.28,4.4,4.4,0,0,1,2.76,2.56,6.6,6.6,0,0,1,.44,2.56V21h-4.23V11.6a2.56,2.56,0,0,0-.36-1.44,2,2,0,0,0-.9-.79,2.79,2.79,0,0,0-1.15-.24,3.18,3.18,0,0,0-1.15.23,2.38,2.38,0,0,0-1,.72,2,2,0,0,0-.41,1.29V21h-4.22V11.22a1.81,1.81,0,0,0-.36-1.14,2.28,2.28,0,0,0-.91-.71,2.7,2.7,0,0,0-1.1-.24,3,3,0,0,0-1.16.24,2.46,2.46,0,0,0-1,.74,2,2,0,0,0-.39,1.26V21Z" transform="translate(6.41 3.01)"/></g></g><g id="DataEcosystem_--_white_version" data-name="DataEcosystem -- white version"><g id="mobile_preferred"><line class="cls-2" y2="30"/></g></g></g></svg>