<svg xmlns="http://www.w3.org/2000/svg" viewBox="0 0 95.8 13.17"><defs><style>.cls-1{fill:none;}.cls-2{fill:#fff;}</style></defs><g id="Layer_2" data-name="Layer 2"><g id="DataEcosystem_--_white_version" data-name="DataEcosystem -- white version"><g id="mobile_vertical"><line class="cls-1" x2="60"/><path class="cls-2" d="M4.76,5.18H6.08v6.51H4.89L1.8,7.21v4.48H.49V5.18h1.3l3,4.31Z"/><path class="cls-2" d="M7.53,5.18H8.84v6.51H7.53Z"/><path class="cls-2" d="M9.82,11.69l2.33-6.51h1.38l2.33,6.51H14.55L14,10.18H11.68l-.54,1.51ZM12,9h1.74l-.86-2.58Z"/><path class="cls-2" d="M16.84,5.18h1.31v6.51H16.84Z"/><path class="cls-2" d="M19.6,5.18h1.95a4.41,4.41,0,0,1,1.93.42,2.44,2.44,0,0,1,1.09,1.11,3.65,3.65,0,0,1,.35,1.68,3.8,3.8,0,0,1-.37,1.75,2.57,2.57,0,0,1-1.12,1.14,4.22,4.22,0,0,1-1.93.4H19.6Zm1.33,1.06v4.39h.6a2.37,2.37,0,0,0,1-.22,1.68,1.68,0,0,0,.74-.71,2.69,2.69,0,0,0,.27-1.31,2.72,2.72,0,0,0-.24-1.23,1.49,1.49,0,0,0-.7-.7,2.47,2.47,0,0,0-1.06-.22Z"/><path class="cls-2" d="M28,5.18h2a4.45,4.45,0,0,1,1.93.42A2.49,2.49,0,0,1,33,6.72a3.79,3.79,0,0,1,.35,1.68,3.8,3.8,0,0,1-.37,1.75,2.54,2.54,0,0,1-1.13,1.14,4.14,4.14,0,0,1-1.92.4H28Zm1.32,1.06v4.39h.61a2.37,2.37,0,0,0,1-.22,1.61,1.61,0,0,0,.73-.71,2.57,2.57,0,0,0,.28-1.31,2.72,2.72,0,0,0-.24-1.23,1.58,1.58,0,0,0-.7-.7,2.47,2.47,0,0,0-1.06-.22Z"/><path class="cls-2" d="M35.66,11.78a1.92,1.92,0,0,1-.81-.17,1.31,1.31,0,0,1-.77-1.26,1.35,1.35,0,0,1,.58-1.16,3.32,3.32,0,0,1,1.8-.41H37V8.49A.61.61,0,0,0,36.85,8a.78.78,0,0,0-.57-.17,1.15,1.15,0,0,0-.55.14.66.66,0,0,0-.35.45h-1.1a1.39,1.39,0,0,1,.3-.83,1.52,1.52,0,0,1,.72-.49,3.27,3.27,0,0,1,1-.16,3,3,0,0,1,1.15.18,1.26,1.26,0,0,1,.63.51,1.52,1.52,0,0,1,.19.79v3.27H37.2l-.1-.8a1.48,1.48,0,0,1-.6.69A1.74,1.74,0,0,1,35.66,11.78Zm.44-.87a1.07,1.07,0,0,0,.35-.06,1.14,1.14,0,0,0,.3-.18,1,1,0,0,0,.21-.25.6.6,0,0,0,.08-.29V9.45h-.47a2.9,2.9,0,0,0-.61.08,1.06,1.06,0,0,0-.46.24.6.6,0,0,0-.17.45.61.61,0,0,0,.22.51A.85.85,0,0,0,36.1,10.91Z"/><path class="cls-2" d="M42.09,8h-1v2.48a.54.54,0,0,0,0,.25.2.2,0,0,0,.14.11.79.79,0,0,0,.23,0h.63v.81a1.07,1.07,0,0,1-.28.08,3.51,3.51,0,0,1-.54,0,2.34,2.34,0,0,1-.94-.16.92.92,0,0,1-.47-.44,1.53,1.53,0,0,1-.13-.66V8H39V7h.8l.33-1.4h.94V7h1Z"/><path class="cls-2" d="M44.4,11.78a1.85,1.85,0,0,1-.8-.17,1.26,1.26,0,0,1-.56-.48,1.38,1.38,0,0,1-.21-.78,1.34,1.34,0,0,1,.57-1.16,3.32,3.32,0,0,1,1.8-.41h.58V8.49A.64.64,0,0,0,45.6,8,.82.82,0,0,0,45,7.83a1.21,1.21,0,0,0-.55.14.66.66,0,0,0-.35.45H43a1.32,1.32,0,0,1,.29-.83A1.62,1.62,0,0,1,44,7.1a3.34,3.34,0,0,1,1-.16,3.08,3.08,0,0,1,1.15.18,1.27,1.27,0,0,1,.62.51,1.52,1.52,0,0,1,.19.79v3.27H46l-.11-.8a1.48,1.48,0,0,1-.6.69A1.74,1.74,0,0,1,44.4,11.78Zm.44-.87a1,1,0,0,0,.35-.06,1.14,1.14,0,0,0,.3-.18.82.82,0,0,0,.21-.25.51.51,0,0,0,.08-.29V9.45h-.47a2.9,2.9,0,0,0-.61.08,1.06,1.06,0,0,0-.46.24.69.69,0,0,0,0,1A.89.89,0,0,0,44.84,10.91Z"/><path class="cls-2" d="M50.28,11.69V5.18h4.47V6.29H51.6V7.87h2.73V9H51.59v1.62H54.8v1.12Z"/><path class="cls-2" d="M57.79,6.94a2.08,2.08,0,0,1,1,.24,1.9,1.9,0,0,1,.67.65,2.11,2.11,0,0,1,.28.9h-1.1a1.09,1.09,0,0,0-.13-.37.79.79,0,0,0-.73-.42.9.9,0,0,0-.74.36,1.67,1.67,0,0,0-.29,1.07,1.92,1.92,0,0,0,.28,1.08.92.92,0,0,0,.78.4.74.74,0,0,0,.44-.13.94.94,0,0,0,.28-.32,1,1,0,0,0,.13-.34h1.06a1.76,1.76,0,0,1-.28.87,1.67,1.67,0,0,1-.67.62,2.08,2.08,0,0,1-1,.23,2.31,2.31,0,0,1-1.15-.29,2,2,0,0,1-.8-.83,2.69,2.69,0,0,1-.29-1.28,2.7,2.7,0,0,1,.28-1.27,2.1,2.1,0,0,1,.78-.86A2.28,2.28,0,0,1,57.79,6.94Z"/><path class="cls-2" d="M62.66,11.78a2.29,2.29,0,0,1-1.19-.3,1.93,1.93,0,0,1-.78-.82,2.67,2.67,0,0,1-.28-1.27,2.79,2.79,0,0,1,.28-1.29,2,2,0,0,1,.78-.85,2.49,2.49,0,0,1,2.39,0,2,2,0,0,1,.77.85,2.8,2.8,0,0,1,.28,1.3,2.73,2.73,0,0,1-.27,1.24,2,2,0,0,1-.77.84A2.22,2.22,0,0,1,62.66,11.78Zm0-1a.8.8,0,0,0,.56-.2,1.15,1.15,0,0,0,.31-.54,2.72,2.72,0,0,0,.1-.72,2.69,2.69,0,0,0-.09-.7,1.21,1.21,0,0,0-.3-.53.93.93,0,0,0-1.14,0,1.17,1.17,0,0,0-.31.52,2.37,2.37,0,0,0-.1.72,2.63,2.63,0,0,0,.09.7,1.17,1.17,0,0,0,.3.55A.79.79,0,0,0,62.66,10.8Z"/><path class="cls-2" d="M67.61,11.78a3,3,0,0,1-.94-.16,1.89,1.89,0,0,1-.76-.51,1.66,1.66,0,0,1-.39-.89h1.14a.71.71,0,0,0,.21.39.84.84,0,0,0,.35.21,1.31,1.31,0,0,0,.38.06,1.32,1.32,0,0,0,.61-.12.39.39,0,0,0,.23-.37.34.34,0,0,0-.14-.3,1,1,0,0,0-.45-.17L67,9.75a2.27,2.27,0,0,1-1-.45,1.1,1.1,0,0,1-.38-.88,1.43,1.43,0,0,1,.22-.76,1.52,1.52,0,0,1,.66-.52,2.62,2.62,0,0,1,1.07-.2A2.3,2.3,0,0,1,69,7.32a1.26,1.26,0,0,1,.52,1.07H68.42A.68.68,0,0,0,68.15,8a1,1,0,0,0-.55-.14A1.13,1.13,0,0,0,67,8a.39.39,0,0,0-.22.37.33.33,0,0,0,.18.29,1.83,1.83,0,0,0,.56.18l.75.17a2,2,0,0,1,.64.26,1.47,1.47,0,0,1,.38.36,1.14,1.14,0,0,1,.18.39,1.17,1.17,0,0,1,.06.35,1.31,1.31,0,0,1-.25.79,1.63,1.63,0,0,1-.69.5A2.87,2.87,0,0,1,67.61,11.78Z"/><path class="cls-2" d="M71.18,13.17a2.21,2.21,0,0,1-.87-.16v-.83l.46,0a1.7,1.7,0,0,0,.48,0,1,1,0,0,0,.29-.13.38.38,0,0,0,.13-.16.69.69,0,0,0,.06-.13l.09-.26L70,7h1.3l1.11,3,1.13-3h1.29L73,11.71a3.27,3.27,0,0,1-.51.91,1.41,1.41,0,0,1-.58.43A1.91,1.91,0,0,1,71.18,13.17Z"/><path class="cls-2" d="M77.22,11.78a2.94,2.94,0,0,1-.94-.16,1.89,1.89,0,0,1-.76-.51,1.67,1.67,0,0,1-.4-.89h1.14a.72.72,0,0,0,.22.39.84.84,0,0,0,.35.21,1.31,1.31,0,0,0,.38.06,1.35,1.35,0,0,0,.61-.12.39.39,0,0,0,.23-.37.36.36,0,0,0-.14-.3,1,1,0,0,0-.45-.17l-.82-.17a2.27,2.27,0,0,1-1-.45,1.07,1.07,0,0,1-.38-.88,1.35,1.35,0,0,1,.22-.76,1.52,1.52,0,0,1,.66-.52,2.62,2.62,0,0,1,1.07-.2,2.32,2.32,0,0,1,1.38.38,1.29,1.29,0,0,1,.52,1.07H78A.6.6,0,0,0,77.75,8a.91.91,0,0,0-.54-.14,1.13,1.13,0,0,0-.56.12.39.39,0,0,0-.23.37.33.33,0,0,0,.18.29,1.93,1.93,0,0,0,.56.18l.76.17a2,2,0,0,1,.64.26,1.47,1.47,0,0,1,.38.36,1.35,1.35,0,0,1,.23.74,1.3,1.3,0,0,1-.24.79,1.63,1.63,0,0,1-.69.5A3,3,0,0,1,77.22,11.78Z"/><path class="cls-2" d="M82.87,8h-1v2.48a.54.54,0,0,0,0,.25.2.2,0,0,0,.14.11.79.79,0,0,0,.23,0h.63v.81a1.07,1.07,0,0,1-.28.08,3.51,3.51,0,0,1-.54,0,2.31,2.31,0,0,1-.94-.16.92.92,0,0,1-.47-.44,1.53,1.53,0,0,1-.13-.66V8h-.76V7h.8l.33-1.4h.94V7h1Z"/><path class="cls-2" d="M84.77,9.66a1.35,1.35,0,0,0,.11.62.92.92,0,0,0,.34.41,1,1,0,0,0,.54.14,1.15,1.15,0,0,0,.59-.15.72.72,0,0,0,.35-.47h1.19a1.72,1.72,0,0,1-.4.85,2,2,0,0,1-.76.53,2.39,2.39,0,0,1-.94.19,2.49,2.49,0,0,1-1.21-.29,2.15,2.15,0,0,1-.82-.82,2.55,2.55,0,0,1-.29-1.26,3,3,0,0,1,.26-1.25,2.16,2.16,0,0,1,.77-.89,2.2,2.2,0,0,1,1.22-.33,2.25,2.25,0,0,1,1.2.3,1.93,1.93,0,0,1,.73.84,2.93,2.93,0,0,1,.24,1.23v.35Zm0-.78h1.9a1.19,1.19,0,0,0-.1-.51A.81.81,0,0,0,86.25,8a1,1,0,0,0-.53-.14A.89.89,0,0,0,85.2,8a.91.91,0,0,0-.32.38A1,1,0,0,0,84.76,8.88Z"/><path class="cls-2" d="M88.8,11.69V7h1.29v.66a2,2,0,0,1,.57-.53,1.76,1.76,0,0,1,.9-.22,1.46,1.46,0,0,1,.49.09,1.72,1.72,0,0,1,.46.25,1.29,1.29,0,0,1,.36.41,1.78,1.78,0,0,1,.59-.53,1.53,1.53,0,0,1,.82-.22A1.58,1.58,0,0,1,94.8,7a1.46,1.46,0,0,1,.5.28,1.38,1.38,0,0,1,.36.51,2.08,2.08,0,0,1,.14.8v3.07H94.48V8.78a.75.75,0,0,0-.11-.45.6.6,0,0,0-.28-.24A.85.85,0,0,0,93.74,8a1.15,1.15,0,0,0-.36.07.87.87,0,0,0-.31.23.62.62,0,0,0-.12.4v3H91.64v-3a.56.56,0,0,0-.11-.35.74.74,0,0,0-.28-.22A.89.89,0,0,0,90.9,8a.94.94,0,0,0-.36.08.76.76,0,0,0-.3.23.61.61,0,0,0-.12.39v3Z"/></g></g></g></svg>