<svg xmlns="http://www.w3.org/2000/svg" viewBox="0 0 38.09 30"><defs><style>.cls-1{fill:#fff;}.cls-2{fill:none;stroke:#fff;stroke-miterlimit:10;stroke-width:0.5px;}</style></defs><g id="Layer_2" data-name="Layer 2"><g id="DataEcosystem_--_white_version" data-name="DataEcosystem -- white version"><g id="mobile_preferred"><path class="cls-1" d="M22,5.51v8.86H20.48v-4h-4v4H14.9V5.51h1.55V9h4V5.51H22Zm-8.7,8.86H11.79V5.51h1.55Zm-3.08,0H8.62l-4-6.52h0v6.52H3.07V5.51H4.71L8.76,12h0V5.51h1.47ZM27.5,9.91,22,0H1.83A1.83,1.83,0,0,0,0,1.83V18a1.83,1.83,0,0,0,1.83,1.82H22Z"/><path class="cls-1" d="M23.38,19.83l5.49-9.92L23.4,0h1.37a2.56,2.56,0,0,1,2,1.19l4.82,8.72-4.83,8.73a2.57,2.57,0,0,1-2,1.19Z"/><path class="cls-1" d="M1,22.72H2.33l3.33,5.36h0V22.72H6.89V30H5.54L2.23,24.64h0V30H1Z"/><path class="cls-1" d="M8.4,22.72H9.67V30H8.4Z"/><path class="cls-1" d="M13.18,22.72h1.36L17.34,30H16l-.69-1.93h-2.9L11.7,30H10.39Zm-.45,4.38H15L13.87,24h0Z"/><path class="cls-1" d="M18,22.72h1.27V30H18Z"/><path class="cls-1" d="M20.87,22.72h3c2.25,0,3.22,1.63,3.22,3.64S26.14,30,23.89,30h-3ZM22.15,29H23.4c2,0,2.43-1.14,2.43-2.6s-.43-2.6-2.43-2.6H22.15Z"/><line class="cls-2" x1="37.84" x2="37.84" y2="30"/></g></g></g></svg>