<svg xmlns="http://www.w3.org/2000/svg" viewBox="0 0 160.48 36.14"><defs><style>.cls-1{fill:none;stroke:#fff;stroke-miterlimit:10;}.cls-2{fill:#fff;}</style></defs><g id="Layer_2" data-name="Layer 2"><g id="DataEcosystem_--_white_version" data-name="DataEcosystem -- white version"><g id="desktop_long"><line class="cls-1" x1="159.98" x2="159.98" y2="35.97"/><path class="cls-2" d="M40,10.16V26.24H37.18V19H29.86v7.25H27V10.16h2.82v6.4h7.32v-6.4H40ZM24.22,26.24H21.4V10.16h2.82Zm-5.59,0h-3L8.33,14.42H8.26V26.24H5.58V10.16h3L15.9,22h0V10.16h2.68Zm31.3-8.09L40,.18H3.31A3.31,3.31,0,0,0,0,3.49V32.83a3.31,3.31,0,0,0,3.31,3.31H39.94Z"/><path class="cls-2" d="M42.44,36.14l10-18L42.47.18H45a4.65,4.65,0,0,1,3.68,2.16l8.74,15.81L48.61,34a4.65,4.65,0,0,1-3.68,2.16Z"/><path class="cls-2" d="M143.29,33.05c0,1.22,1,1.8,2.29,1.8,1.08,0,2.31-.45,2.31-1.68,0-1-.84-1.32-1.67-1.51s-1.68-.27-1.68-.83.61-.53.94-.53c.5,0,1,.15,1.06.69h1.18c-.14-1.15-1.1-1.59-2.16-1.59s-2.16.35-2.16,1.48.82,1.35,1.66,1.53,1.66.26,1.7.86S146,34,145.6,34c-.61,0-1.11-.24-1.17-.9Zm-4.21-1.38a1.33,1.33,0,1,1,2.66,0Zm3.8.75a2.5,2.5,0,1,0-4.94-.29,2.45,2.45,0,0,0,2.53,2.72,2.26,2.26,0,0,0,2.34-1.76h-1.08a1.2,1.2,0,0,1-1.26.86,1.38,1.38,0,0,1-1.39-1.53Zm-10,.63c0,1.22,1,1.8,2.29,1.8,1.07,0,2.31-.45,2.31-1.68,0-1-.84-1.32-1.67-1.51s-1.68-.27-1.68-.83.61-.53.94-.53c.5,0,.95.15,1,.69h1.19c-.14-1.15-1.1-1.59-2.16-1.59s-2.16.35-2.16,1.48.82,1.35,1.66,1.53,1.66.26,1.69.86-.72.68-1.15.68c-.61,0-1.11-.24-1.17-.9Zm-.77-2.15c0-1.09-1.06-1.5-2.07-1.5s-2.27.39-2.35,1.72h1.14c.05-.56.5-.82,1.14-.82.46,0,1.07.11,1.07.7s-.73.58-1.55.73-2,.32-2,1.61a1.57,1.57,0,0,0,1.77,1.51,2.65,2.65,0,0,0,1.79-.63c.09.47.42.63.88.63a2.86,2.86,0,0,0,.72-.13v-.79a1.58,1.58,0,0,1-.28,0c-.21,0-.27-.11-.27-.39ZM131,33c0,.72-.78,1-1.28,1s-1.05-.15-1.05-.66.44-.78.93-.86a4.07,4.07,0,0,0,1.4-.31Zm-7.68-1.3a1.33,1.33,0,1,1,2.66,0Zm3.8.75a2.5,2.5,0,1,0-4.94-.29,2.45,2.45,0,0,0,2.53,2.72A2.26,2.26,0,0,0,127,33.09H126a1.2,1.2,0,0,1-1.26.86,1.38,1.38,0,0,1-1.39-1.53Zm-10,.63c0,1.22,1,1.8,2.29,1.8,1.07,0,2.31-.45,2.31-1.68,0-1-.84-1.32-1.67-1.51s-1.68-.27-1.68-.83.61-.53.94-.53c.5,0,1,.15,1.05.69h1.19c-.14-1.15-1.1-1.59-2.16-1.59s-2.16.35-2.16,1.48.82,1.35,1.66,1.53,1.66.26,1.69.86-.72.68-1.15.68c-.61,0-1.11-.24-1.17-.9Zm-1.92-4.4h1.14V27.58h-1.14Zm0,6.06h1.14V29.54h-1.14Zm-6.91,0h3c2.2,0,3.15-1.6,3.15-3.57s-1-3.56-3.15-3.56h-3Zm1.25-6.12h1.23c2,0,2.38,1.12,2.38,2.55s-.42,2.55-2.38,2.55h-1.23Zm-9.3,4.46c0,1.22,1,1.8,2.29,1.8,1.07,0,2.31-.45,2.31-1.68,0-1-.84-1.32-1.67-1.51s-1.68-.27-1.68-.83.61-.53.94-.53c.5,0,1,.15,1,.69h1.19c-.14-1.15-1.1-1.59-2.16-1.59s-2.16.35-2.16,1.48.82,1.35,1.66,1.53,1.66.26,1.69.86-.72.68-1.15.68c-.61,0-1.11-.24-1.17-.9Zm-.74-3.51H98.37v3c0,.8-.32,1.41-1.27,1.41-.62,0-1-.33-1-1.24V29.54H95v3.28c0,1.35.58,2,1.93,2A1.74,1.74,0,0,0,98.37,34h0v.72h1.12Zm-7.92,5.31a2.49,2.49,0,0,0,2.6-2.73,2.61,2.61,0,1,0-5.21,0,2.49,2.49,0,0,0,2.61,2.73m0-.9c-1,0-1.48-.93-1.48-1.83s.45-1.82,1.48-1.82,1.47.93,1.47,1.82S92.6,34,91.59,34M87,28.65h1.13V27.58H87Zm0,6.06h1.13V29.54H87Zm-3.71-4.32h.87v3c0,.86.23,1.32,1.42,1.32.25,0,.49,0,.74-.06v-.88a2,2,0,0,1-.48,0c-.51,0-.55-.24-.55-.71V30.39h1v-.85h-1V28H84.18v1.54h-.87Zm-.23.88a2.09,2.09,0,0,0-2.33-1.87,2.49,2.49,0,0,0-2.55,2.78,2.43,2.43,0,0,0,2.51,2.67,2.23,2.23,0,0,0,2.37-2.08H81.94A1.23,1.23,0,0,1,80.71,34c-1,0-1.37-.91-1.37-1.77,0-1.57.83-1.88,1.42-1.88a1.09,1.09,0,0,1,1.18,1Zm-9.12.4a1.33,1.33,0,1,1,2.66,0Zm3.8.75a2.5,2.5,0,1,0-4.94-.29,2.45,2.45,0,0,0,2.53,2.72,2.26,2.26,0,0,0,2.34-1.76H76.61a1.2,1.2,0,0,1-1.26.86A1.38,1.38,0,0,1,74,32.42Zm-8.17-2h.85v4.32h1.14V30.39h1v-.85h-1V29c0-.44.25-.54.56-.54a2,2,0,0,1,.53.05v-.88a3.21,3.21,0,0,0-.8-.07c-.74,0-1.43.22-1.43,1.53v.43h-.85Zm-5,4.32h1.14V31.66a1.26,1.26,0,0,1,1.25-1.36c.67,0,1,.35,1,1.16v3.25h1.14V31.16a1.63,1.63,0,0,0-1.83-1.76,1.85,1.85,0,0,0-1.61.92l0,0v-.76H64.54Zm-2.44,0h1.25V27.58H62.1Z"/><path class="cls-2" d="M110.79,14.92h-1.14v2.64h0a2,2,0,0,0-1.72-.81c-1.13,0-2.24.82-2.24,2.69,0,1.54.79,2.75,2.42,2.75a1.72,1.72,0,0,0,1.6-.84h0v.7h1.08Zm-4,4.6c0-.92.38-1.87,1.45-1.87.88,0,1.43.68,1.43,1.81,0,.91-.43,1.83-1.45,1.83s-1.43-.88-1.43-1.77m-6.45,2.53h1.14V19a1.26,1.26,0,0,1,1.25-1.35c.67,0,1,.34,1,1.16v3.24h1.14V18.5a1.63,1.63,0,0,0-1.83-1.75,1.88,1.88,0,0,0-1.62.92v-.78h-1.08Zm-1-3.8c0-1.09-1.06-1.5-2.07-1.5s-2.27.39-2.35,1.71H96c0-.55.5-.81,1.15-.81.46,0,1.07.11,1.07.69s-.73.59-1.55.74-2,.31-2,1.6a1.56,1.56,0,0,0,1.76,1.51,2.66,2.66,0,0,0,1.8-.63.76.76,0,0,0,.87.63,2.86,2.86,0,0,0,.73-.13v-.79a1.62,1.62,0,0,1-.29,0c-.2,0-.26-.11-.26-.39Zm-1.14,2.06c0,.72-.78,1-1.28,1s-1.06-.15-1.06-.66.44-.77.94-.85a4.31,4.31,0,0,0,1.4-.32ZM88.76,22l-.13.4c-.15.44-.28.72-.81.72a3.35,3.35,0,0,1-.53-.07v1a5.06,5.06,0,0,0,.79.06c1.18,0,1.46-.84,1.82-1.77l2-5.44h-1.2l-1.31,3.86h0L88,16.89H86.79Zm-2.37-5.14H85.25v.71h0a1.63,1.63,0,0,0-1.53-.85,2.38,2.38,0,0,0-2.34,2.58c0,1.48.68,2.72,2.32,2.72a1.77,1.77,0,0,0,1.55-.91h0v.79a1.17,1.17,0,0,1-1.33,1.32c-.58,0-1.1-.11-1.24-.76H81.54c.1,1.21,1.27,1.61,2.31,1.61,1.64,0,2.54-.77,2.54-2.32Zm-2.53,4.26c-1,0-1.36-.86-1.36-1.71s.35-1.79,1.36-1.79,1.39.81,1.39,1.71-.38,1.79-1.39,1.79m-5.59.9h1.14V19.59c0-1.14.62-1.76,1.4-1.76a4.07,4.07,0,0,1,.49.05v-1.1a2.71,2.71,0,0,0-.43,0,1.67,1.67,0,0,0-1.51,1.14h0v-1H78.27Zm-4.49-3a1.33,1.33,0,1,1,2.66,0Zm3.8.75a2.5,2.5,0,1,0-4.94-.28,2.45,2.45,0,0,0,2.53,2.71,2.26,2.26,0,0,0,2.34-1.76H76.43a1.2,1.2,0,0,1-1.26.86,1.38,1.38,0,0,1-1.39-1.53Zm-6.89,2.29h1.14V14.92H70.69Zm-2.23,0H69.6V14.92H68.46Zm-7.19,0h1.29l.67-1.89h2.85l.67,1.89h1.34l-2.75-7.13H64Zm3.38-5.9h0l1.07,3.06H63.57Z"/><path class="cls-2" d="M144.9,5.08h.85V9.4h1.14V5.08h1V4.23h-1V3.7c0-.43.25-.54.56-.54a1.93,1.93,0,0,1,.53.06V2.33a3.21,3.21,0,0,0-.8-.07c-.74,0-1.43.22-1.43,1.54v.43h-.85ZM142,9.54a2.5,2.5,0,0,0,2.61-2.73,2.61,2.61,0,1,0-5.22,0A2.5,2.5,0,0,0,142,9.54m0-.9c-1,0-1.47-.93-1.47-1.83S141,5,142,5s1.47.93,1.47,1.82-.45,1.83-1.47,1.83m-9.46-2.28a1.33,1.33,0,1,1,2.66,0Zm3.8.75a2.5,2.5,0,1,0-4.94-.29A2.45,2.45,0,0,0,134,9.54a2.26,2.26,0,0,0,2.34-1.76h-1.08a1.2,1.2,0,0,1-1.26.86,1.38,1.38,0,0,1-1.39-1.53Zm-8.36-2h.86V8.13c0,.86.24,1.31,1.43,1.31.25,0,.49,0,.74,0V8.51a2,2,0,0,1-.48,0c-.51,0-.55-.24-.55-.71V5.08h1V4.23h-1V2.68h-1.14V4.23H128Zm-.5-.85h-1.14v3c0,.8-.32,1.41-1.27,1.41-.62,0-1-.33-1-1.24V4.23H123V7.51c0,1.35.58,2,1.93,2a1.74,1.74,0,0,0,1.47-.86h0V9.4h1.12Zm-8.21.85h.86V8.13c0,.86.24,1.31,1.43,1.31.25,0,.49,0,.74,0V8.51a2,2,0,0,1-.48,0c-.51,0-.55-.24-.55-.71V5.08h1V4.23h-1V2.68h-1.14V4.23h-.86Zm-1.68-1.74h1.14V2.26h-1.14Zm0,6.06h1.14V4.23h-1.14Zm-3.7-4.32h.86V8.13c0,.86.24,1.31,1.43,1.31.25,0,.49,0,.74,0V8.51a2,2,0,0,1-.48,0c-.51,0-.55-.24-.55-.71V5.08h1V4.23h-1V2.68h-1.14V4.23h-.86Zm-4.77,2.66c0,1.22,1,1.8,2.29,1.8,1.07,0,2.31-.45,2.31-1.68,0-1-.84-1.32-1.67-1.51s-1.68-.27-1.68-.83S111,5,111.34,5c.5,0,1,.15,1,.69h1.19c-.14-1.15-1.1-1.59-2.16-1.59s-2.16.35-2.16,1.48.82,1.35,1.66,1.53,1.66.26,1.69.86-.72.68-1.15.68c-.61,0-1.11-.24-1.17-.9ZM103.87,9.4H105V6.35A1.26,1.26,0,0,1,106.26,5c.67,0,1,.35,1,1.16V9.4h1.14V5.85a1.63,1.63,0,0,0-1.83-1.76A1.85,1.85,0,0,0,105,5l0,0V4.23h-1.08Zm-2.44,0h1.25V2.26h-1.25Zm-5,0h1.14V2.26H96.47ZM95.38,5.59c0-1.09-1-1.5-2.06-1.5S91,4.48,91,5.81H92.1c.05-.56.5-.82,1.15-.82.46,0,1.07.11,1.07.7s-.73.58-1.55.73-2,.32-2,1.61a1.57,1.57,0,0,0,1.77,1.51,2.67,2.67,0,0,0,1.79-.63.76.76,0,0,0,.87.63,3,3,0,0,0,.73-.13V8.62a1.58,1.58,0,0,1-.28,0c-.22,0-.28-.11-.28-.39ZM94.25,7.66c0,.72-.78,1-1.28,1s-1-.15-1-.66.43-.78.92-.86a4.08,4.08,0,0,0,1.41-.31ZM85.49,9.4h1.14V6.35A1.26,1.26,0,0,1,87.89,5c.66,0,1,.35,1,1.16V9.4H90V5.85a1.63,1.63,0,0,0-1.82-1.76A1.86,1.86,0,0,0,86.59,5l0,0V4.23H85.49Zm-3.38.14a2.5,2.5,0,0,0,2.61-2.73,2.61,2.61,0,1,0-5.22,0,2.5,2.5,0,0,0,2.61,2.73m0-.9c-1,0-1.47-.93-1.47-1.83S81.09,5,82.11,5s1.47.93,1.47,1.82-.45,1.83-1.47,1.83m-4.57-5.3h1.14V2.26H77.54Zm0,6.06h1.14V4.23H77.54Zm-3.7-4.32h.86V8.13c0,.86.24,1.31,1.43,1.31.25,0,.49,0,.74,0V8.51a2,2,0,0,1-.48,0c-.51,0-.55-.24-.55-.71V5.08h1V4.23h-1V2.68H74.7V4.23h-.86Zm-.53.51c0-1.09-1.06-1.5-2.07-1.5S69,4.48,68.89,5.81H70c0-.56.5-.82,1.14-.82.46,0,1.07.11,1.07.7s-.73.58-1.55.73-2,.32-2,1.61a1.57,1.57,0,0,0,1.77,1.51,2.65,2.65,0,0,0,1.79-.63c.09.47.42.63.88.63a2.86,2.86,0,0,0,.72-.13V8.62a1.58,1.58,0,0,1-.28,0c-.21,0-.27-.11-.27-.39ZM72.17,7.66c0,.72-.78,1-1.28,1s-1-.15-1-.66.44-.78.93-.86a4.07,4.07,0,0,0,1.4-.31ZM62.05,9.4h1.19V4.15h0L66.52,9.4h1.32V2.26H66.65V7.52h0L63.37,2.26H62.05Z"/></g></g></g></svg>