<svg xmlns="http://www.w3.org/2000/svg" viewBox="0 0 60 25.79"><defs><style>.cls-1{fill:none;stroke:#fff;stroke-miterlimit:10;stroke-width:0.5px;}.cls-2{fill:#fff;}</style></defs><g id="Layer_2" data-name="Layer 2"><g id="DataEcosystem_--_white_version" data-name="DataEcosystem -- white version"><g id="mobile_vertical"><line class="cls-1" y1="25.54" x2="60" y2="25.54"/><path class="cls-2" d="M21.33,5.32v8.57H19.82V10h-3.9v3.86h-1.5V5.32h1.5V8.73h3.9V5.32h1.51Zm-8.42,8.57h-1.5V5.32h1.5Zm-3,0H8.35L4.44,7.59h0v6.3H3V5.32H4.56l3.92,6.32h0V5.32H9.93ZM26.62,9.58,21.31,0H1.77A1.77,1.77,0,0,0,0,1.77V17.41a1.76,1.76,0,0,0,1.77,1.76H21.29Z"/><path class="cls-2" d="M22.62,19.17l5.32-9.59L22.64,0H24a2.46,2.46,0,0,1,2,1.16l4.66,8.42L25.91,18a2.45,2.45,0,0,1-2,1.15Z"/><path class="cls-2" d="M34.49,5.55h1.3L39,10.74h0V5.55H40.2v7H38.9L35.69,7.41h0v5.18H34.49Z"/><path class="cls-2" d="M41.66,5.55H42.9v7H41.66Z"/><path class="cls-2" d="M46.29,5.55h1.32l2.71,7H49l-.66-1.86H45.52l-.66,1.86H43.59Zm-.43,4.24H48l-1-3h0Z"/><path class="cls-2" d="M51,5.55h1.24v7H51Z"/><path class="cls-2" d="M53.74,5.55h2.92c2.17,0,3.11,1.58,3.11,3.52s-.94,3.52-3.11,3.52H53.74Zm1.23,6h1.21c1.94,0,2.35-1.1,2.35-2.51s-.41-2.51-2.35-2.51H55Z"/></g></g></g></svg>